<svg id="svg" version="1.1" width="300" height="300" viewBox="70 15 160 270" xmlns="http://www.w3.org/2000/svg">
  <path d="M226.927 19.635 C 228.119 21.150,229.000 23.743,229.000 25.738 C 229.000 31.460,217.203 124.893,211.544 164.000 L 209.011 181.500 205.155 185.000 C 203.034 186.925,197.756 191.200,193.426 194.500 C 186.717 199.613,131.840 242.128,116.500 254.097 C 99.215 267.584,86.095 277.541,83.500 279.142 C 78.987 281.926,73.609 281.590,71.073 278.365 C 68.404 274.972,68.440 273.649,71.936 246.935 C 73.551 234.596,76.492 211.900,78.472 196.500 C 84.625 148.643,89.171 117.592,90.359 115.309 C 91.798 112.547,207.575 22.701,215.500 18.197 C 216.600 17.572,219.155 17.047,221.177 17.030 C 223.980 17.007,225.348 17.626,226.927 19.635 M197.454 41.297 C 154.193 73.895,97.500 118.109,96.788 119.804 C 96.025 121.621,91.156 157.319,82.985 221.000 C 80.197 242.725,77.504 263.421,77.000 266.991 C 75.857 275.079,76.705 276.125,81.710 272.803 C 84.422 271.002,200.795 181.362,202.737 179.577 C 204.030 178.388,223.414 26.479,222.468 24.948 C 222.146 24.427,221.551 24.000,221.145 24.000 C 220.740 24.000,210.079 31.784,197.454 41.297 M134.464 130.982 C 150.867 135.691,166.467 145.694,176.293 157.801 C 182.589 165.559,184.526 168.905,183.343 169.981 C 180.550 172.520,116.018 223.130,103.723 232.424 C 101.645 233.994,99.727 235.060,99.459 234.793 C 99.192 234.525,100.338 224.225,102.006 211.903 C 106.827 176.297,112.990 132.716,113.573 130.111 C 114.090 127.803,114.333 127.744,120.804 128.353 C 124.487 128.699,130.634 129.882,134.464 130.982 M118.588 137.750 C 118.274 139.262,115.762 156.700,113.006 176.500 C 110.250 196.300,107.751 213.963,107.452 215.750 C 107.154 217.537,107.267 218.990,107.705 218.978 C 108.142 218.967,113.675 214.888,120.000 209.914 C 126.325 204.941,133.068 199.663,134.984 198.186 C 136.899 196.709,141.876 192.800,146.041 189.500 C 150.207 186.200,158.200 179.900,163.802 175.500 C 169.404 171.100,173.991 166.983,173.994 166.351 C 174.002 164.867,160.137 150.000,158.746 150.000 C 158.164 150.000,156.167 148.839,154.306 147.420 C 149.501 143.755,138.945 139.160,130.183 136.919 C 120.219 134.371,119.276 134.438,118.588 137.750 " stroke="none" fill="black" fill-rule="evenodd"/>
</svg>
