<svg id="svg" version="1.1" width="1920" height="1920" viewBox="0 0 1920 1920" xmlns="http://www.w3.org/2000/svg"><path d="M0.000 960.000 L 0.000 1920.000 960.000 1920.000 L 1920.000 1920.000 1920.000 960.000 L 1920.000 0.000 960.000 0.000 L 0.000 0.000 0.000 960.000 M930.880 238.750 C 937.502 246.066,940.137 249.502,954.337 269.344 C 959.737 276.890,967.903 289.614,983.827 315.296 C 987.307 320.908,992.508 329.100,995.384 333.500 C 1003.389 345.747,1007.967 353.352,1027.500 386.857 C 1030.800 392.517,1036.537 402.306,1040.250 408.609 C 1043.963 414.913,1047.000 420.283,1047.000 420.542 C 1047.000 420.801,1049.860 426.073,1053.356 432.257 C 1062.708 448.802,1064.392 451.845,1074.556 470.571 C 1082.812 485.784,1103.454 517.950,1114.633 533.025 C 1119.054 538.987,1132.539 561.301,1138.338 572.251 C 1143.520 582.037,1149.237 591.606,1154.177 598.762 C 1172.065 624.674,1178.425 634.914,1184.944 648.302 C 1187.837 654.243,1190.425 660.768,1190.695 662.802 C 1191.288 667.275,1189.727 668.966,1179.610 674.810 L 1172.720 678.789 1149.110 678.751 C 1125.520 678.713,1119.686 679.358,1115.650 682.450 C 1113.453 684.133,1114.206 685.742,1117.847 687.148 C 1123.213 689.220,1142.596 693.987,1145.679 693.994 C 1150.423 694.003,1168.000 702.428,1168.001 704.692 C 1168.001 705.686,1168.836 708.750,1169.857 711.500 C 1170.877 714.250,1172.277 719.910,1172.968 724.078 L 1174.224 731.655 1170.362 740.902 C 1166.964 749.037,1166.081 750.326,1163.012 751.623 C 1161.093 752.434,1158.552 752.853,1157.365 752.556 C 1155.886 752.184,1153.248 753.322,1148.981 756.172 L 1142.755 760.329 1143.234 767.023 C 1143.829 775.348,1147.001 781.450,1152.080 784.041 C 1155.019 785.540,1158.853 785.965,1173.088 786.370 C 1182.664 786.642,1191.400 787.192,1192.500 787.592 C 1193.600 787.991,1197.030 790.699,1200.122 793.608 C 1203.214 796.517,1206.814 799.115,1208.122 799.381 C 1209.430 799.646,1216.350 800.349,1223.500 800.942 C 1237.193 802.078,1238.973 802.823,1239.022 807.441 C 1239.053 810.387,1242.687 818.000,1244.061 818.000 C 1244.699 818.000,1247.217 815.975,1249.657 813.500 C 1252.237 810.882,1255.015 808.997,1256.297 808.993 C 1257.508 808.990,1259.850 808.093,1261.500 807.000 C 1266.940 803.397,1269.141 804.215,1274.915 811.980 C 1277.770 815.819,1282.863 823.357,1286.233 828.730 C 1289.602 834.104,1294.672 841.650,1297.498 845.500 C 1303.473 853.641,1303.895 854.251,1312.777 867.615 C 1324.382 885.075,1348.000 924.643,1348.000 926.625 C 1348.000 926.853,1349.064 928.726,1350.366 930.787 C 1353.431 935.643,1378.000 980.787,1378.000 981.564 C 1378.000 981.890,1380.538 987.184,1383.640 993.328 C 1386.742 999.473,1389.887 1006.750,1390.628 1009.500 C 1392.578 1016.732,1392.355 1025.237,1390.083 1030.261 C 1389.029 1032.592,1387.208 1036.750,1386.036 1039.500 C 1384.865 1042.250,1381.689 1047.884,1378.979 1052.019 C 1376.269 1056.154,1373.126 1062.229,1371.996 1065.519 C 1367.852 1077.575,1347.213 1113.871,1314.900 1165.927 C 1309.974 1173.861,1304.510 1182.861,1302.756 1185.927 C 1301.003 1188.992,1296.500 1195.737,1292.749 1200.916 C 1283.010 1214.364,1273.628 1229.953,1263.527 1249.473 C 1258.696 1258.808,1253.716 1268.074,1252.460 1270.063 C 1251.204 1272.052,1247.592 1278.589,1244.433 1284.590 C 1241.273 1290.590,1236.254 1299.325,1233.279 1304.000 C 1230.305 1308.675,1223.704 1319.475,1218.612 1328.000 C 1213.519 1336.525,1206.686 1347.666,1203.426 1352.758 C 1200.167 1357.850,1194.973 1365.983,1191.884 1370.832 L 1186.267 1379.649 1191.299 1385.074 C 1194.066 1388.058,1198.892 1393.200,1202.022 1396.500 C 1205.152 1399.800,1209.345 1404.662,1211.340 1407.305 C 1213.335 1409.947,1215.641 1412.784,1216.465 1413.608 C 1219.096 1416.239,1234.501 1437.230,1239.503 1445.000 C 1242.159 1449.125,1247.161 1456.775,1250.619 1462.000 C 1259.106 1474.823,1259.223 1475.227,1257.350 1485.197 C 1254.998 1497.711,1255.940 1497.000,1241.713 1497.000 C 1221.732 1497.000,1186.094 1488.827,1151.719 1476.360 C 1143.590 1473.412,1136.360 1471.000,1135.653 1471.000 C 1134.947 1471.000,1133.393 1472.735,1132.201 1474.855 L 1130.035 1478.711 1137.684 1485.105 C 1141.892 1488.622,1147.171 1493.099,1149.417 1495.054 C 1153.744 1498.821,1178.609 1517.384,1183.241 1520.306 C 1194.470 1527.388,1228.714 1557.937,1238.198 1569.333 L 1243.129 1575.258 1242.483 1586.879 C 1242.127 1593.271,1241.416 1599.878,1240.903 1601.562 C 1239.574 1605.921,1234.395 1610.462,1219.179 1620.613 C 1199.727 1633.591,1194.930 1636.433,1180.259 1643.673 L 1167.018 1650.208 1171.222 1656.201 C 1173.534 1659.497,1178.367 1665.548,1181.963 1669.647 C 1196.422 1686.133,1199.154 1689.680,1202.703 1696.574 L 1206.401 1703.759 1202.063 1713.360 C 1197.201 1724.121,1198.473 1723.325,1184.261 1724.513 C 1171.625 1725.570,1125.685 1720.336,1074.500 1712.007 C 1061.300 1709.860,1043.913 1707.373,1035.863 1706.481 L 1021.226 1704.860 1002.864 1714.180 L 984.502 1723.500 979.726 1731.000 C 977.099 1735.125,974.174 1739.773,973.225 1741.328 C 969.431 1747.549,951.979 1772.020,945.445 1780.280 C 941.625 1785.109,936.797 1791.409,934.715 1794.280 C 931.596 1798.583,930.014 1799.797,925.715 1801.189 C 922.847 1802.118,919.744 1802.905,918.819 1802.939 C 915.899 1803.045,898.000 1793.920,898.000 1792.326 C 898.000 1791.508,896.432 1788.963,894.515 1786.670 C 891.048 1782.521,883.640 1772.780,872.836 1758.163 C 869.721 1753.948,863.461 1744.425,858.925 1737.000 C 854.389 1729.575,850.114 1722.825,849.426 1722.000 C 848.737 1721.175,846.491 1717.125,844.434 1713.000 C 842.376 1708.875,838.434 1701.450,835.673 1696.500 C 832.912 1691.550,829.329 1685.025,827.710 1682.000 C 823.578 1674.277,811.599 1654.913,805.439 1646.000 C 802.589 1641.875,798.098 1634.900,795.459 1630.500 C 787.136 1616.622,773.030 1594.045,762.971 1578.500 C 757.632 1570.250,748.886 1556.300,743.535 1547.500 C 738.185 1538.700,732.112 1529.025,730.040 1526.000 C 727.968 1522.975,724.343 1517.125,721.983 1513.000 C 719.624 1508.875,715.680 1501.996,713.220 1497.714 C 704.430 1482.416,706.449 1476.504,724.500 1464.686 C 728.350 1462.166,733.913 1458.393,736.862 1456.302 C 739.812 1454.211,742.708 1452.197,743.298 1451.826 C 744.059 1451.349,744.049 1450.764,743.266 1449.821 C 739.931 1445.802,725.600 1414.629,722.937 1405.599 L 719.893 1395.280 702.278 1377.403 C 680.970 1355.777,673.658 1346.524,659.748 1323.583 C 652.759 1312.056,652.510 1311.423,652.148 1304.267 C 651.858 1298.522,652.274 1295.389,654.009 1290.254 C 655.691 1285.273,656.105 1282.310,655.686 1278.251 C 655.083 1272.403,654.031 1270.609,649.629 1267.925 C 647.119 1266.395,646.301 1266.338,643.129 1267.476 C 637.814 1269.381,625.324 1276.656,606.874 1288.593 C 596.524 1295.289,591.689 1298.000,590.098 1298.000 C 589.547 1298.000,587.772 1296.087,586.154 1293.750 C 584.536 1291.412,581.477 1287.677,579.356 1285.449 C 577.235 1283.221,573.518 1277.596,571.095 1272.949 C 568.672 1268.302,562.531 1257.075,557.447 1248.000 C 552.364 1238.925,544.850 1224.975,540.749 1217.000 C 536.648 1209.025,532.117 1200.250,530.680 1197.500 C 529.243 1194.750,524.160 1183.950,519.384 1173.500 C 508.212 1149.051,497.015 1127.557,485.002 1107.500 C 466.956 1077.370,451.221 1051.500,447.611 1046.023 C 445.625 1043.010,444.000 1039.783,444.000 1038.852 C 444.000 1037.384,440.015 1030.006,432.160 1016.931 L 430.016 1013.362 437.153 998.931 C 441.078 990.994,448.796 977.075,454.304 968.000 C 459.812 958.925,466.220 948.350,468.543 944.500 C 470.866 940.650,475.182 933.842,478.133 929.371 C 481.085 924.901,490.250 910.803,498.500 898.044 C 506.750 885.284,516.804 869.817,520.842 863.672 C 524.879 857.528,528.371 852.199,528.601 851.831 C 529.065 851.086,512.467 839.292,507.016 836.495 C 503.027 834.447,479.597 818.963,470.565 812.405 C 467.229 809.982,460.675 805.237,456.000 801.859 C 451.325 798.482,445.205 793.644,442.401 791.109 C 439.596 788.574,434.192 783.756,430.393 780.403 C 426.451 776.924,422.299 772.127,420.723 769.232 L 417.961 764.158 426.369 759.079 C 430.994 756.285,435.221 754.000,435.762 754.000 C 436.303 754.000,438.853 753.068,441.428 751.929 C 448.099 748.978,472.237 744.210,487.537 742.821 C 506.718 741.080,559.849 743.353,573.684 746.507 C 575.529 746.928,576.346 746.067,578.934 740.973 C 580.621 737.655,582.000 734.727,582.000 734.466 C 582.000 734.205,570.363 728.202,556.139 721.126 C 541.916 714.050,528.536 707.077,526.407 705.631 C 524.278 704.184,522.229 703.000,521.854 703.000 C 521.479 703.000,515.923 700.029,509.507 696.398 C 503.092 692.767,494.616 688.791,490.671 687.563 C 481.932 684.840,453.663 672.935,438.000 665.380 C 423.293 658.286,388.635 639.950,379.368 634.360 C 372.466 630.197,357.092 622.471,344.209 616.693 C 336.618 613.287,326.804 604.367,322.157 596.648 C 319.220 591.770,318.685 589.770,317.756 580.202 C 316.629 568.589,316.389 569.874,321.519 560.108 C 323.653 556.048,331.412 553.163,344.619 551.521 C 350.604 550.777,359.775 549.163,365.000 547.935 C 379.407 544.547,435.475 544.061,487.681 546.870 C 539.338 549.650,555.649 550.182,561.396 549.274 L 566.293 548.500 558.491 538.500 C 554.199 533.000,542.996 519.338,533.594 508.139 C 524.192 496.940,515.600 486.562,514.500 485.077 C 513.400 483.591,510.730 480.231,508.566 477.610 C 503.509 471.484,500.104 459.070,499.291 443.788 C 498.475 428.467,499.758 427.063,516.082 425.421 C 522.379 424.787,523.123 424.958,533.276 429.379 C 539.112 431.921,544.758 434.000,545.821 434.000 C 550.068 434.000,594.038 449.153,628.500 462.493 C 703.444 491.502,715.538 496.090,727.284 499.962 C 732.666 501.736,737.616 502.977,738.284 502.720 C 738.953 502.463,743.083 495.784,747.463 487.878 C 751.843 479.972,758.143 469.154,761.463 463.837 C 771.942 447.057,779.560 434.286,805.298 390.352 C 809.534 383.120,813.000 376.923,813.000 376.580 C 813.000 376.237,815.627 371.579,818.839 366.228 C 822.050 360.878,826.372 353.350,828.443 349.500 C 830.515 345.650,834.111 339.575,836.435 336.000 C 838.759 332.425,844.608 322.975,849.434 315.000 C 854.260 307.025,860.589 296.900,863.500 292.500 C 872.059 279.562,884.000 258.130,884.000 255.706 C 884.000 251.847,888.736 246.167,894.288 243.367 C 897.154 241.921,899.725 240.431,900.000 240.056 C 900.275 239.682,903.200 238.549,906.500 237.538 C 909.800 236.528,914.750 234.659,917.500 233.386 C 920.250 232.112,922.807 231.054,923.182 231.035 C 923.557 231.016,927.021 234.488,930.880 238.750 M910.500 247.655 C 909.400 247.888,907.519 248.286,906.320 248.540 C 903.575 249.123,910.018 238.608,836.184 363.000 C 826.553 379.225,815.444 397.900,811.497 404.500 C 807.550 411.100,796.987 428.875,788.025 444.000 C 779.063 459.125,769.171 475.775,766.042 481.000 C 762.913 486.225,756.366 497.250,751.494 505.500 C 746.622 513.750,742.025 521.231,741.278 522.123 C 740.045 523.597,738.838 523.265,728.210 518.528 C 721.769 515.658,713.350 512.054,709.500 510.520 C 701.589 507.368,659.394 492.222,651.000 489.521 C 634.161 484.102,577.155 462.013,549.000 449.996 C 522.067 438.501,514.954 436.888,509.635 441.073 C 502.542 446.652,508.462 457.066,541.186 496.573 C 568.332 529.346,575.564 537.791,592.289 556.250 C 600.993 565.857,601.124 565.539,589.119 563.980 C 543.972 558.119,436.961 556.150,398.000 560.463 C 380.647 562.384,357.792 566.894,349.500 570.035 C 341.269 573.152,335.999 578.462,336.004 583.632 C 336.011 591.496,341.878 597.062,360.000 606.400 C 373.490 613.351,405.323 628.063,438.413 642.639 C 504.735 671.853,585.492 711.102,597.251 719.835 C 600.138 721.979,604.750 724.985,607.500 726.515 C 610.250 728.045,613.483 729.896,614.685 730.629 L 616.871 731.962 612.271 739.731 C 601.258 758.331,597.149 764.488,595.868 764.307 C 595.116 764.201,588.650 762.990,581.500 761.616 C 549.710 755.509,542.293 754.764,508.500 754.281 C 463.019 753.631,439.021 756.344,434.022 762.699 C 431.508 765.895,431.397 771.144,433.796 773.315 C 436.402 775.674,446.586 780.058,462.000 785.457 C 484.271 793.257,517.185 806.614,530.941 813.434 C 541.034 818.437,552.342 825.627,557.827 830.529 C 558.007 830.690,552.425 840.424,545.422 852.161 C 538.419 863.897,529.073 879.575,524.653 887.000 C 520.233 894.425,513.401 905.900,509.472 912.500 C 505.542 919.100,495.652 935.750,487.493 949.500 C 453.152 1007.375,452.464 1008.473,449.712 1009.801 C 448.229 1010.516,446.543 1011.985,445.965 1013.065 C 444.436 1015.922,445.853 1021.751,448.954 1025.367 C 450.432 1027.090,458.305 1039.750,466.449 1053.500 C 474.593 1067.250,482.494 1080.525,484.006 1083.000 C 485.519 1085.475,494.749 1101.000,504.518 1117.500 C 514.287 1134.000,524.189 1150.650,526.523 1154.500 C 528.857 1158.350,538.092 1173.875,547.044 1189.000 C 555.996 1204.125,566.553 1221.900,570.504 1228.500 C 574.455 1235.100,582.338 1248.375,588.022 1258.000 C 593.705 1267.625,598.838 1275.831,599.428 1276.235 C 601.748 1277.825,605.999 1276.846,610.640 1273.654 C 613.316 1271.813,616.924 1269.574,618.657 1268.677 C 620.391 1267.781,625.287 1264.283,629.538 1260.906 L 637.265 1254.765 647.218 1253.983 C 660.727 1252.921,684.828 1255.294,686.402 1257.841 C 686.632 1258.214,685.037 1261.440,682.856 1265.010 C 676.353 1275.652,673.166 1282.426,671.025 1290.151 C 667.262 1303.730,668.536 1307.410,681.852 1321.420 C 686.609 1326.424,695.218 1336.589,700.985 1344.009 C 714.717 1361.679,716.625 1363.727,727.501 1372.475 L 736.702 1379.875 737.280 1387.188 C 737.598 1391.209,738.787 1398.325,739.922 1403.000 C 741.101 1407.856,741.998 1414.930,742.015 1419.500 C 742.053 1430.076,744.029 1434.244,753.107 1442.900 L 760.289 1449.749 754.767 1456.624 C 751.730 1460.406,747.278 1466.453,744.873 1470.062 C 742.468 1473.671,738.819 1478.099,736.764 1479.903 C 732.578 1483.578,730.877 1488.281,731.278 1495.075 C 731.544 1499.574,732.504 1501.297,765.475 1556.500 C 769.417 1563.100,777.309 1576.375,783.013 1586.000 C 788.716 1595.625,797.954 1611.150,803.542 1620.500 C 809.129 1629.850,821.704 1651.000,831.486 1667.500 C 841.268 1684.000,851.176 1700.650,853.505 1704.500 C 855.834 1708.350,861.323 1717.575,865.703 1725.000 C 891.115 1768.084,900.554 1783.739,902.304 1785.707 C 906.019 1789.883,919.508 1791.004,926.685 1787.734 C 929.132 1786.619,930.222 1784.888,958.006 1738.000 C 965.339 1725.625,971.960 1714.765,972.720 1713.866 C 973.479 1712.967,976.891 1711.225,980.300 1709.995 C 983.710 1708.765,993.777 1704.204,1002.671 1699.860 C 1025.817 1688.555,1025.696 1688.567,1066.500 1693.502 C 1087.428 1696.033,1102.363 1697.601,1137.772 1700.984 C 1161.973 1703.297,1174.029 1705.392,1178.807 1708.115 C 1189.444 1714.178,1199.142 1705.610,1190.670 1697.635 C 1185.348 1692.624,1157.912 1663.075,1152.469 1656.489 C 1147.940 1651.011,1143.097 1642.439,1144.094 1641.663 C 1145.243 1640.769,1173.182 1624.425,1184.500 1618.026 C 1209.982 1603.619,1218.553 1598.662,1222.416 1596.099 C 1226.691 1593.262,1229.993 1588.643,1229.992 1585.500 C 1229.992 1584.236,1225.856 1579.673,1218.746 1573.094 C 1212.561 1567.371,1200.750 1556.312,1192.500 1548.519 C 1164.402 1521.978,1138.252 1499.044,1120.250 1485.156 C 1116.263 1482.080,1113.000 1479.075,1113.000 1478.478 C 1113.000 1477.881,1115.740 1472.759,1119.088 1467.096 C 1124.703 1457.599,1125.383 1456.834,1127.838 1457.251 C 1132.447 1458.033,1154.518 1464.790,1182.500 1473.985 C 1228.896 1489.230,1242.277 1491.814,1247.545 1486.545 C 1250.634 1483.457,1250.622 1482.204,1247.469 1478.485 C 1244.999 1475.573,1226.845 1450.976,1222.017 1444.000 C 1213.064 1431.064,1186.802 1396.845,1179.744 1388.918 L 1171.249 1379.377 1178.947 1366.438 C 1183.181 1359.322,1193.318 1342.250,1201.473 1328.500 C 1209.628 1314.750,1219.535 1298.100,1223.488 1291.500 C 1227.441 1284.900,1238.685 1266.000,1248.475 1249.500 C 1258.265 1233.000,1273.112 1208.025,1281.469 1194.000 C 1289.825 1179.975,1303.334 1157.250,1311.488 1143.500 C 1319.641 1129.750,1329.547 1113.100,1333.501 1106.500 C 1337.454 1099.900,1348.014 1082.125,1356.968 1067.000 C 1365.921 1051.875,1375.274 1036.196,1377.751 1032.159 C 1382.159 1024.976,1382.245 1024.672,1381.771 1018.044 C 1381.262 1010.932,1380.355 1009.121,1362.477 979.500 C 1360.154 975.650,1353.321 964.175,1347.294 954.000 C 1326.411 918.747,1298.288 871.432,1275.168 832.654 C 1270.955 825.588,1266.796 819.426,1265.924 818.959 C 1264.768 818.341,1261.653 819.993,1254.420 825.063 C 1239.855 835.269,1240.298 835.120,1236.850 830.989 C 1235.264 829.090,1233.134 825.277,1232.116 822.518 C 1229.011 814.100,1221.816 810.961,1213.548 814.416 C 1210.375 815.741,1209.948 815.675,1206.830 813.377 C 1204.998 812.028,1202.009 809.041,1200.187 806.741 C 1190.243 794.189,1178.444 791.525,1157.020 796.995 C 1152.521 798.144,1148.004 798.819,1146.984 798.495 C 1144.136 797.591,1133.904 786.046,1131.943 781.525 C 1129.173 775.138,1128.694 768.340,1130.429 760.020 C 1131.283 755.925,1132.773 751.786,1133.741 750.822 C 1134.708 749.859,1138.772 748.384,1142.771 747.544 C 1151.535 745.705,1154.275 744.048,1156.578 739.195 C 1159.126 733.824,1159.798 717.443,1157.640 713.271 C 1154.938 708.046,1141.713 702.426,1122.603 698.382 C 1110.722 695.867,1089.701 688.803,1087.152 686.468 C 1085.503 684.957,1086.561 682.607,1091.811 676.114 C 1096.404 670.433,1104.376 666.733,1118.000 663.958 C 1128.982 661.721,1139.738 661.697,1162.500 663.862 C 1173.677 664.925,1174.726 664.343,1171.838 658.683 C 1170.682 656.416,1168.941 653.423,1167.969 652.031 C 1166.998 650.639,1158.209 636.000,1148.439 619.500 C 1138.669 603.000,1127.444 584.100,1123.495 577.500 C 1119.545 570.900,1108.309 552.000,1098.526 535.500 C 1088.743 519.000,1079.505 503.475,1077.997 501.000 C 1075.217 496.436,1062.333 474.757,1035.505 429.500 C 1027.354 415.750,1015.192 395.275,1008.479 384.000 C 1001.765 372.725,992.662 357.425,988.250 350.000 C 983.837 342.575,973.528 325.250,965.341 311.500 C 957.153 297.750,945.740 278.569,939.977 268.875 C 928.042 248.797,926.138 246.931,917.764 247.116 C 914.869 247.180,911.600 247.422,910.500 247.655 M935.935 294.216 C 939.914 300.972,944.774 309.200,946.735 312.500 C 970.551 352.575,992.248 389.148,996.271 396.000 C 999.017 400.675,1002.271 406.075,1003.503 408.000 C 1004.735 409.925,1011.713 421.625,1019.009 434.000 C 1026.306 446.375,1034.185 459.650,1036.519 463.500 C 1038.853 467.350,1048.087 482.875,1057.040 498.000 C 1065.993 513.125,1077.580 532.700,1082.789 541.500 C 1087.998 550.300,1093.259 559.075,1094.479 561.000 C 1095.700 562.925,1101.216 572.150,1106.739 581.500 C 1128.275 617.964,1133.564 626.870,1139.699 637.000 L 1146.058 647.500 1134.779 648.144 C 1116.064 649.212,1099.819 652.847,1089.732 658.223 C 1079.701 663.570,1069.037 677.495,1069.010 685.282 C 1068.995 689.500,1071.441 694.469,1074.637 696.713 C 1079.701 700.269,1104.319 708.795,1117.500 711.558 C 1124.537 713.034,1132.704 715.306,1135.648 716.608 L 1141.000 718.975 1141.000 726.349 L 1141.000 733.724 1135.303 734.868 C 1118.478 738.247,1112.493 747.218,1112.532 769.000 C 1112.557 782.827,1113.871 786.385,1123.052 797.484 C 1129.208 804.926,1134.111 808.968,1139.500 811.044 C 1144.043 812.793,1153.528 812.409,1163.000 810.093 C 1177.607 806.520,1177.666 806.537,1188.653 817.525 C 1200.229 829.100,1204.273 831.426,1211.399 830.606 L 1216.500 830.020 1220.000 835.547 C 1229.236 850.134,1242.435 852.952,1254.982 843.014 C 1257.075 841.356,1259.173 840.013,1259.644 840.029 C 1260.115 840.045,1264.535 846.907,1269.468 855.279 C 1274.400 863.651,1284.999 881.525,1293.021 895.000 C 1301.043 908.475,1314.292 930.750,1322.462 944.500 C 1348.978 989.122,1355.161 999.411,1358.708 1004.818 C 1360.627 1007.743,1362.008 1010.325,1361.776 1010.557 C 1361.545 1010.788,1263.358 1010.993,1143.584 1011.011 L 925.813 1011.045 925.899 922.772 C 926.151 662.994,927.407 281.134,928.009 281.506 C 928.389 281.741,931.956 287.460,935.935 294.216 M568.864 473.093 C 598.448 484.967,621.518 493.555,664.500 508.694 C 701.901 521.867,733.000 534.680,733.000 536.917 C 733.000 538.277,719.967 547.436,713.000 550.973 C 705.405 554.828,692.358 558.805,684.746 559.585 C 677.151 560.363,673.737 558.926,662.000 550.008 C 657.875 546.874,647.750 539.494,639.500 533.610 C 631.250 527.725,620.675 520.140,616.000 516.753 C 604.704 508.571,584.547 494.225,562.500 478.675 C 542.181 464.344,539.137 462.054,540.364 462.022 C 540.840 462.010,553.665 466.992,568.864 473.093 M507.500 572.015 C 541.752 573.037,557.394 574.000,582.000 576.601 C 595.929 578.074,601.000 579.563,601.000 582.179 C 601.000 582.802,602.055 584.704,603.345 586.406 C 605.444 589.175,612.357 599.995,628.643 626.000 C 636.343 638.297,641.224 648.840,641.372 653.500 L 641.500 657.500 636.630 657.245 C 633.951 657.105,628.101 655.888,623.630 654.539 C 619.158 653.190,604.640 649.377,591.367 646.065 C 578.094 642.753,559.644 637.742,550.367 634.929 C 530.488 628.902,486.140 617.501,463.500 612.598 C 454.700 610.692,435.575 606.110,421.000 602.415 C 398.788 596.785,377.431 591.951,360.000 588.608 C 358.075 588.239,355.646 587.290,354.602 586.500 C 351.667 584.278,353.951 582.500,362.791 580.128 C 391.712 572.365,436.018 569.881,507.500 572.015 M906.870 870.250 L 907.015 1010.000 778.682 1010.000 L 650.349 1010.000 648.307 1012.250 C 641.297 1019.974,641.426 1024.778,648.775 1029.600 C 695.782 1060.442,701.911 1065.212,703.898 1072.500 C 706.619 1082.479,704.678 1088.284,695.537 1097.511 C 690.529 1102.567,678.936 1111.188,675.693 1112.269 C 674.375 1112.708,677.690 1125.454,680.631 1131.259 C 682.092 1134.142,686.168 1140.940,689.690 1146.367 C 701.847 1165.101,706.060 1176.443,704.566 1186.408 C 703.739 1191.926,696.809 1202.774,688.059 1212.248 C 683.954 1216.693,682.283 1219.158,683.163 1219.470 C 683.898 1219.730,691.700 1222.184,700.500 1224.922 C 709.300 1227.660,723.097 1232.154,731.161 1234.908 L 745.822 1239.915 756.220 1234.485 C 761.939 1231.498,774.403 1226.132,783.918 1222.560 C 793.432 1218.987,801.843 1215.545,802.609 1214.910 C 804.562 1213.289,804.340 1207.681,801.997 1199.497 C 795.984 1178.485,792.473 1151.043,794.890 1143.940 C 796.330 1139.709,798.593 1138.016,807.528 1134.487 C 819.771 1129.652,834.507 1122.411,840.594 1118.238 C 848.962 1112.502,853.949 1106.847,859.826 1096.432 C 865.466 1086.435,872.294 1076.918,880.941 1067.000 C 884.058 1063.425,889.399 1057.044,892.811 1052.820 C 900.599 1043.177,906.523 1039.923,917.577 1039.213 L 925.000 1038.737 925.000 1032.928 C 925.000 1029.732,925.453 1026.838,926.007 1026.496 C 927.409 1025.629,1285.918 1025.832,1287.323 1026.700 C 1287.951 1027.088,1281.482 1028.183,1272.949 1029.135 C 1237.841 1033.051,1183.082 1042.968,1160.798 1049.446 C 1093.717 1068.946,1052.867 1091.215,1012.110 1130.500 C 978.974 1162.440,953.525 1199.328,944.156 1229.000 C 936.308 1253.855,932.682 1270.096,928.974 1297.000 C 927.874 1304.975,926.808 1312.175,926.604 1313.000 C 926.399 1313.825,926.180 1270.584,926.116 1216.910 C 926.052 1163.235,925.702 1111.760,925.338 1102.522 C 924.746 1087.521,924.519 1085.926,923.214 1087.612 C 919.740 1092.102,910.671 1113.081,908.393 1121.896 C 904.524 1136.870,903.840 1137.991,894.074 1145.389 C 883.736 1153.220,881.488 1155.547,880.587 1159.350 C 880.216 1160.918,879.034 1163.393,877.962 1164.850 C 872.366 1172.456,866.316 1197.157,862.598 1227.580 C 861.183 1239.156,859.540 1250.021,858.946 1251.724 C 858.353 1253.427,856.209 1255.943,854.184 1257.316 C 849.358 1260.585,825.591 1268.238,806.600 1272.636 C 788.141 1276.911,783.045 1279.146,773.995 1286.935 C 770.120 1290.271,766.467 1293.000,765.879 1293.000 C 765.290 1293.000,763.614 1293.843,762.154 1294.873 C 760.482 1296.053,757.133 1296.913,753.101 1297.198 C 747.444 1297.597,746.372 1298.019,743.851 1300.840 C 742.283 1302.596,741.000 1304.766,741.000 1305.663 C 741.000 1307.928,746.074 1313.973,763.299 1332.232 C 777.927 1347.738,778.149 1348.040,778.677 1353.232 C 779.133 1357.708,778.685 1359.778,775.698 1367.000 C 770.233 1380.212,760.099 1410.773,759.376 1416.221 C 758.241 1424.781,756.753 1419.931,755.874 1404.803 C 755.417 1396.936,754.760 1386.900,754.415 1382.500 C 753.817 1374.890,753.962 1374.076,757.393 1365.807 C 759.377 1361.025,761.000 1356.124,761.000 1354.914 C 761.000 1353.468,757.151 1348.743,749.750 1341.104 C 743.563 1334.717,734.900 1325.234,730.500 1320.031 C 723.181 1311.376,722.508 1310.214,722.593 1306.390 C 722.850 1294.894,737.119 1283.000,750.654 1283.000 C 754.825 1283.000,755.769 1282.503,761.253 1277.426 C 771.884 1267.584,778.079 1264.745,799.500 1259.898 C 814.096 1256.595,837.369 1249.557,840.667 1247.448 C 842.405 1246.337,842.964 1244.720,843.489 1239.281 C 846.983 1203.082,851.959 1179.459,859.453 1163.500 C 861.261 1159.650,863.012 1155.341,863.345 1153.924 C 864.084 1150.783,872.147 1142.617,881.265 1135.777 C 887.435 1131.149,888.167 1130.209,889.578 1125.101 C 893.443 1111.110,896.346 1103.213,901.213 1093.449 C 907.736 1080.361,912.168 1074.423,918.535 1070.236 C 923.585 1066.915,943.611 1058.630,954.500 1055.355 L 960.500 1053.551 945.000 1052.739 C 927.274 1051.810,916.550 1052.410,913.348 1054.508 C 911.328 1055.831,904.789 1063.452,888.644 1083.301 C 885.423 1087.260,879.593 1095.900,875.689 1102.500 C 864.237 1121.857,856.253 1128.454,829.000 1141.072 L 812.500 1148.712 812.164 1153.606 C 811.655 1161.008,813.803 1174.791,818.118 1191.823 C 820.253 1200.251,822.000 1208.703,822.000 1210.605 C 822.000 1214.527,819.755 1220.497,817.212 1223.341 C 815.078 1225.727,803.970 1230.848,790.660 1235.583 C 778.099 1240.051,769.863 1243.607,764.000 1247.094 C 758.421 1250.412,743.178 1253.357,738.000 1252.118 C 736.075 1251.657,730.450 1249.838,725.500 1248.075 C 720.550 1246.312,706.422 1241.745,694.105 1237.926 L 671.711 1230.982 664.105 1235.144 C 657.640 1238.681,654.776 1239.568,645.000 1241.059 C 638.675 1242.024,631.925 1243.156,630.000 1243.575 C 626.688 1244.296,626.581 1244.238,628.000 1242.495 C 630.768 1239.096,643.963 1229.119,650.595 1225.410 C 654.208 1223.389,657.438 1221.022,657.773 1220.149 C 658.108 1219.277,662.538 1214.590,667.617 1209.734 C 672.697 1204.878,679.023 1197.726,681.676 1193.841 C 686.065 1187.415,686.496 1186.270,686.455 1181.139 C 686.399 1174.136,683.642 1167.897,674.389 1153.830 C 664.860 1139.345,660.446 1129.977,658.358 1119.809 C 655.963 1108.142,656.980 1105.850,667.198 1099.888 C 675.158 1095.245,684.364 1087.130,686.618 1082.772 C 688.480 1079.170,687.552 1075.784,683.646 1071.931 C 681.916 1070.224,669.925 1061.802,657.000 1053.216 C 627.864 1033.859,626.448 1032.740,624.429 1027.452 C 622.660 1022.822,623.110 1019.746,626.028 1016.500 C 627.017 1015.400,627.978 1013.600,628.163 1012.500 C 628.493 1010.541,627.809 1010.490,594.500 1010.000 C 572.780 1009.681,563.389 1009.266,568.500 1008.851 C 572.900 1008.494,584.477 1006.560,594.228 1004.553 C 638.401 995.459,678.613 977.263,728.500 943.793 C 760.693 922.194,778.295 905.055,805.204 869.107 C 825.754 841.654,839.130 819.801,855.839 786.382 C 878.201 741.655,890.298 706.950,899.890 660.000 C 900.958 654.775,902.657 646.900,903.666 642.500 L 905.500 634.500 906.113 682.500 C 906.449 708.900,906.790 793.388,906.870 870.250 M1301.804 665.624 C 1306.037 667.078,1313.895 670.210,1319.267 672.584 C 1341.538 682.427,1376.060 691.654,1386.806 690.636 C 1393.510 690.001,1408.811 691.542,1416.000 693.577 C 1420.597 694.878,1422.567 696.249,1428.000 701.933 C 1431.575 705.673,1436.300 711.351,1438.500 714.553 C 1442.160 719.877,1442.488 720.889,1442.358 726.436 C 1442.280 729.771,1441.284 735.250,1440.144 738.610 C 1439.005 741.971,1437.659 746.471,1437.152 748.610 C 1436.646 750.750,1434.786 757.900,1433.018 764.500 C 1431.251 771.100,1429.403 779.604,1428.912 783.397 C 1427.489 794.374,1422.398 801.783,1410.953 809.532 C 1402.461 815.281,1398.772 816.046,1383.293 815.264 C 1376.758 814.934,1367.706 815.218,1361.576 815.944 C 1353.295 816.926,1348.355 816.936,1338.283 815.990 C 1331.252 815.331,1325.043 814.500,1324.485 814.145 C 1323.926 813.790,1320.871 810.740,1317.694 807.367 C 1312.331 801.672,1311.891 800.842,1311.518 795.725 C 1311.298 792.695,1310.399 788.496,1309.521 786.395 C 1307.602 781.804,1291.780 766.114,1284.140 761.227 C 1276.128 756.101,1241.565 740.000,1238.574 740.000 C 1237.154 740.000,1226.348 727.842,1225.243 725.000 C 1224.922 724.175,1223.836 722.427,1222.830 721.115 C 1219.761 717.116,1220.445 712.652,1224.750 708.572 C 1226.813 706.617,1228.819 705.013,1229.209 705.009 C 1229.599 705.004,1232.231 701.900,1235.057 698.111 C 1239.830 691.713,1262.294 671.584,1270.282 666.547 C 1278.393 661.433,1288.722 661.131,1301.804 665.624 M1283.200 674.995 C 1279.225 676.684,1271.821 682.081,1262.500 690.083 C 1250.555 700.338,1247.818 703.378,1244.120 710.500 C 1240.827 716.841,1240.182 721.571,1242.250 724.218 C 1244.831 727.522,1262.944 738.377,1281.891 747.974 C 1292.676 753.437,1303.162 758.941,1305.194 760.204 C 1313.755 765.525,1325.372 782.354,1329.063 794.781 C 1329.763 797.136,1331.483 800.210,1332.886 801.613 C 1335.153 803.881,1335.994 804.099,1340.468 803.578 C 1343.236 803.256,1350.675 802.553,1357.000 802.015 C 1376.085 800.393,1404.259 797.058,1408.248 795.949 C 1410.310 795.376,1413.235 793.842,1414.748 792.540 C 1417.124 790.496,1417.471 789.512,1417.285 785.336 C 1416.964 778.141,1418.629 770.275,1422.572 760.362 C 1434.524 730.309,1433.923 721.453,1419.440 714.189 C 1413.798 711.360,1406.079 709.502,1387.598 706.526 C 1357.277 701.643,1343.628 697.354,1312.000 682.769 C 1294.224 674.572,1288.093 672.916,1283.200 674.995 M1305.668 695.871 C 1333.616 708.819,1353.443 715.016,1381.079 719.444 C 1405.607 723.373,1412.398 725.464,1413.383 729.390 C 1414.179 732.562,1411.892 740.952,1406.548 754.461 C 1403.445 762.308,1401.428 769.275,1400.687 774.715 C 1399.888 780.574,1399.108 783.143,1398.028 783.471 C 1395.253 784.316,1357.099 788.000,1351.125 788.000 L 1345.268 788.000 1342.035 780.771 C 1336.861 769.198,1329.523 759.441,1321.390 753.320 C 1317.453 750.356,1305.067 743.322,1293.866 737.687 C 1282.665 732.052,1270.222 725.316,1266.216 722.719 C 1259.414 718.309,1259.008 717.847,1260.091 715.748 C 1262.555 710.971,1266.315 706.870,1274.747 699.761 C 1284.808 691.280,1287.963 689.000,1289.640 689.000 C 1290.297 689.000,1297.510 692.092,1305.668 695.871 M558.000 770.868 C 582.830 774.854,583.726 775.187,574.828 777.116 C 572.448 777.632,558.927 781.266,544.782 785.191 L 519.065 792.327 499.282 784.677 C 488.402 780.470,475.456 775.634,470.514 773.931 C 458.854 769.914,457.801 769.322,461.014 768.592 C 466.108 767.435,473.310 767.257,505.500 767.495 C 537.026 767.728,539.371 767.878,558.000 770.868 M1159.150 1389.667 C 1164.833 1393.507,1177.096 1408.596,1199.732 1439.599 C 1213.029 1457.811,1214.489 1460.000,1213.337 1460.000 C 1211.716 1460.000,1175.486 1429.094,1161.171 1415.500 C 1150.448 1405.317,1146.486 1396.559,1149.423 1389.530 C 1151.182 1385.321,1152.752 1385.343,1159.150 1389.667 M892.447 1403.980 C 893.865 1404.519,895.543 1406.098,896.177 1407.488 C 898.125 1411.764,895.784 1414.459,887.077 1417.969 C 877.812 1421.704,865.028 1431.079,855.466 1441.150 C 850.235 1446.660,847.321 1450.902,843.822 1458.095 C 838.635 1468.763,835.079 1472.473,829.072 1473.488 C 823.739 1474.389,817.932 1472.608,796.412 1463.476 C 786.721 1459.364,777.925 1456.000,776.865 1456.000 C 774.521 1456.000,774.323 1455.412,773.577 1446.250 C 773.110 1440.523,773.271 1439.000,774.342 1439.000 C 775.556 1439.000,789.675 1444.669,815.331 1455.458 C 820.188 1457.501,824.242 1459.021,824.340 1458.836 C 824.439 1458.651,826.013 1455.383,827.838 1451.572 C 832.270 1442.321,838.483 1434.442,847.800 1426.260 C 860.814 1414.831,870.490 1408.472,880.162 1404.992 C 886.254 1402.801,888.795 1402.591,892.447 1403.980 M761.000 1428.500 C 761.718 1429.365,761.815 1430.000,761.229 1430.000 C 760.671 1430.000,759.955 1429.325,759.638 1428.500 C 759.322 1427.675,759.219 1427.000,759.409 1427.000 C 759.599 1427.000,760.315 1427.675,761.000 1428.500 M1122.117 1505.647 C 1145.590 1525.199,1149.701 1528.885,1185.476 1562.449 C 1193.713 1570.177,1202.709 1578.605,1205.466 1581.177 C 1208.223 1583.750,1210.221 1586.112,1209.906 1586.428 C 1209.027 1587.306,1192.633 1580.351,1170.500 1569.709 C 1159.500 1564.420,1144.200 1557.785,1136.500 1554.965 C 1124.621 1550.615,1113.858 1546.018,1103.165 1540.726 C 1097.399 1537.874,1096.649 1529.783,1100.475 1511.718 C 1101.836 1505.291,1102.687 1499.349,1102.367 1498.514 C 1101.507 1496.273,1102.831 1492.000,1104.386 1492.000 C 1105.127 1492.000,1113.106 1498.141,1122.117 1505.647 M1129.245 1648.806 C 1132.979 1656.572,1140.521 1666.340,1154.856 1681.976 C 1162.262 1690.055,1162.458 1691.554,1155.718 1688.580 C 1149.341 1685.765,1119.643 1661.145,1117.405 1656.817 C 1115.994 1654.088,1116.045 1653.530,1118.096 1649.187 C 1120.618 1643.843,1122.815 1640.996,1124.405 1641.009 C 1125.007 1641.015,1127.185 1644.523,1129.245 1648.806 M1022.000 1676.836 C 1022.000 1677.296,1019.269 1678.431,1015.932 1679.359 C 1012.594 1680.287,1006.364 1682.806,1002.088 1684.956 C 993.051 1689.499,975.518 1697.421,972.250 1698.436 C 970.261 1699.054,970.000 1698.786,970.000 1696.132 C 970.000 1689.731,971.054 1688.782,983.738 1683.760 C 990.323 1681.153,998.363 1678.378,1001.605 1677.593 C 1008.083 1676.026,1022.000 1675.509,1022.000 1676.836 " stroke="none" fill="black" fill-rule="evenodd"/></svg>