<svg viewBox="0 0 300 300" fit="" height="100%" width="100%" preserveAspectRatio="xMidYMid meet" focusable="false"><defs>
      <radialGradient id="ac-gradient" gradientUnits="userSpaceOnUse" cx="48%" cy="52%" r="100">
        <stop offset="35%" stop-color="#9D3752"></stop>
        <stop offset="100%" stop-color="#FFDCCF"></stop>
      </radialGradient>
    </defs><path style="fill:url('#ac-gradient');stroke: #9D3752;stroke-width: 2px;" d="M 132.19253,271.95392 C 109.84932,270.24014 97.72766,267.24222 88.061479,261.03945 79.819795,255.75078 79.721195,255.29293 78.900339,218.5 77.899922,173.6587 76.263326,133.04076 74.770363,116 74.071664,108.025 73.511182,97.225 73.524849,92 c 0.02912,-11.133955 1.803503,-15.557322 8.560808,-21.341324 6.489118,-5.554444 13.995804,-7.609561 32.485773,-8.893684 l 16.07144,-1.116157 -0.0714,-12.574417 c -0.0841,-14.798712 1.33242,-20.974279 5.64275,-24.601186 3.5813,-3.013464 9.66455,-3.369707 12.07419,-0.70708 2.74694,3.035331 3.82011,10.744087 3.148,22.612567 -0.85742,15.14074 -1.25595,14.726189 15.17162,15.78167 28.83453,1.852636 37.83926,3.715032 43.17231,8.929073 6.13884,6.001848 5.98043,1.253327 3.21615,96.410538 -0.51128,17.6 -1.20867,42.8 -1.54977,56 -0.72442,28.03361 -1.61228,32.6656 -7.36387,38.41719 -4.41499,4.41499 -11.90372,7.24094 -25.08281,9.46527 -11.35149,1.91586 -32.88987,2.63897 -46.80747,1.57146 z"></path><path style="fill:#fff" d="m 140.78738,211.25 c -0.97969,-1.12602 -1.72812,-4.78076 -2.09902,-10.25 -1.18159,-17.42369 -7.36292,-29.73213 -17.40411,-34.65552 C 116.1549,163.82946 114.19795,163.46824 104,163.15414 92.035288,162.78563 89,161.74267 89,158 c 0,-3.26299 3.252468,-4.73243 11.95614,-5.4017 15.31156,-1.17738 25.88251,-4.55111 30.81059,-9.83324 3.93609,-4.21887 6.41475,-13.19983 6.97291,-25.26506 0.54544,-11.79016 1.62804,-14.5 5.7929,-14.5 1.22242,0 2.67423,0.5625 3.22626,1.25 0.55203,0.6875 1.22744,6.2 1.50091,12.25 0.6374,14.10138 3.33173,22.01489 9.74029,28.60813 6.23844,6.41821 13.37124,8.96103 27.39521,9.76627 8.84755,0.50802 11.10188,0.9545 11.99488,2.3756 0.79965,1.27254 0.79946,2.22746 -7.1e-4,3.5 -0.85493,1.35965 -3.19591,1.92163 -10.49488,2.51944 -16.11782,1.32011 -25.11446,4.76537 -31.55735,12.08487 -5.01982,5.70283 -7.4862,13.50763 -8.10421,25.64569 -0.26604,5.225 -0.93238,10.0625 -1.48076,10.75 -1.41826,1.77804 -4.18453,1.54616 -5.9648,-0.5 z"></path></svg>