<svg viewBox="0 0 300 300" fit="" height="100%" width="100%" preserveAspectRatio="xMidYMid meet" focusable="false"><path d="M 120.5,270.37631 C 106.13946,268.69198 97.386844,266.22075 90.081499,261.78791 80.205463,255.7952 80.590573,257.28941 79.87295,222.17903 79.528072,205.30556 78.958924,189.25 78.608176,186.5 78.257428,183.75 77.535605,167.79625 77.004124,151.04722 76.472644,134.29819 75.307902,113.78047 74.415809,105.45228 72.483555,87.413618 73.251287,81.451427 78.371933,74.729097 84.871113,66.197042 94.077339,63.135901 115.75,62.300604 L 131,61.712845 V 48.034561 c 0,-16.305565 1.47967,-22.13649 6.37489,-25.121471 5.61845,-3.425991 10.65579,-2.13244 12.51993,3.215024 0.60785,1.743683 1.10518,9.573082 1.10518,17.398665 0,11.826071 0.27029,14.452655 1.60091,15.556972 1.03298,0.857292 8.90504,1.959415 22.18984,3.106673 23.6378,2.04133 30.18343,3.583756 34.80002,8.200348 5.53852,5.538518 5.80917,8.220618 4.55201,45.109228 -0.61855,18.15 -1.59068,51.225 -2.16029,73.5 -1.68697,65.97002 -1.30846,60.10258 -4.26705,66.1449 -3.25131,6.64014 -8.00613,9.90886 -18.51891,12.73091 -15.89725,4.26745 -44.69467,5.31565 -68.69653,2.5005 z M 153.01155,196.25 c 3.93595,-2.28267 10.79008,-8.05418 17.5168,-14.75 13.37165,-13.31022 17.50437,-20.22507 18.24102,-30.52079 1.03974,-14.5317 -6.39421,-24.1634 -20.89797,-27.07617 -8.96987,-1.80141 -14.83949,0.75865 -21.5673,9.40664 l -2.18582,2.80967 -5.57937,-4.54445 C 131.25148,125.6392 127.93817,124 123.2278,124 c -10.23621,0 -18.14947,5.91689 -22.22651,16.61917 -2.965743,7.78512 -2.824923,13.1771 0.52285,20.01969 7.47958,15.28771 33.43154,39.31803 42.49861,39.35176 1.38752,0.005 5.43247,-1.67812 8.9888,-3.74062 z"></path></svg>