<svg viewBox="0 0 300 300" fit="" height="100%" width="100%" preserveAspectRatio="xMidYMid meet" focusable="false"><path d="m 182.76769,270.89304 c -2.03326,-0.77981 -3.01427,-2.11543 -3.83441,-5.22048 -5.92048,-22.41489 -36.15115,-31.45483 -51.60695,-15.43212 -4.68807,4.86003 -6.85474,8.72886 -7.84521,14.00849 -0.37968,2.0239 -1.30544,4.19031 -2.05724,4.81424 -0.91768,0.76161 -5.73082,1.0198 -14.64539,0.78563 -14.78073,-0.38826 -18.34352,-1.59572 -22.379378,-7.58453 -4.208241,-6.2446 -5.803311,-38.71372 -5.834386,-118.76427 -0.02607,-67.165763 0.558875,-79.706472 4.503103,-96.542226 2.406599,-10.272453 4.859129,-14.611482 9.30991,-16.471137 4.294248,-1.794251 19.702451,-2.956947 27.038781,-2.040334 4.94948,0.618396 5.83281,1.063031 6.72049,3.382837 4.72337,12.343709 11.96595,20.655 20.54693,23.578833 15.80661,5.385855 32.08481,-2.485683 39.82884,-19.259767 2.93235,-6.351652 2.93235,-6.351652 17.95978,-5.961033 17.9585,0.466809 20.58016,1.417112 23.76362,8.613855 1.94558,4.398291 2.02723,5.891361 1.45894,26.679001 C 225.36403,77.591013 224.59813,98.75 223.99311,112.5 c -1.90759,43.35339 -2.5226,87.00928 -1.64239,116.58448 0.85072,28.58448 0.85072,28.58448 -1.69616,33.61051 -3.73978,7.3801 -7.04315,8.69241 -22.65456,8.99982 -6.9642,0.13714 -13.71004,-0.21794 -15.23231,-0.80177 z m -33.24791,-96.25456 c 10.50714,0.41209 23.22793,-10.38934 23.63158,-20.89681 0.43159,-11.23483 -12.23571,-24.21416 -23.47883,-24.21598 -10.4923,-0.002 -21.90811,12.09943 -21.91823,22.59172 -0.0101,10.43995 11.33354,22.11193 21.76548,22.52107 z"></path></svg>