<svg viewBox="0 0 300 300" fit="" height="100%" width="100%" preserveAspectRatio="xMidYMid meet" focusable="false"><path d="M 142.60959,239.44301 C 113.95321,222.16358 85.878166,200.14007 65.960999,179.31593 34.762678,146.69692 25.58634,117.48388 38.520684,91.959182 44.836353,79.49581 59.46944,65.48697 70.949494,60.913786 78.618407,57.858805 93.1368,57.186091 101.94215,59.477733 c 13.29152,3.459193 26.87142,11.182516 40.38467,22.968066 l 7.75335,6.762057 8.70991,-8.364533 c 24.65648,-23.678741 50.65888,-30.815814 72.23571,-19.827073 11.53148,5.872805 25.70955,20.774076 31.15572,32.744938 10.07795,22.151642 2.90076,46.630652 -22.5704,76.980142 -16.43339,19.58077 -46.61543,44.60439 -77.99281,64.66304 -6.53493,4.1776 -12.15993,7.59447 -12.5,7.59306 -0.34006,-0.001 -3.26898,-1.6009 -6.50871,-3.55442 z"></path></svg>